<mxfile host="app.diagrams.net" modified="2024-05-14T16:52:11.755Z" agent="Mozilla/5.0 (Windows NT 10.0; Win64; x64) AppleWebKit/537.36 (KHTML, like Gecko) Chrome/124.0.0.0 Safari/537.36" version="24.4.0" etag="1VWv4OpMwh90xa-6X6-5" type="github">
  <diagram name="Сторінка-1" id="-1v-WHwg5FEqOTDXWBtF">
    <mxGraphModel>
      <root>
        <mxCell id="0" />
        <mxCell id="1" parent="0" />
      </root>
    </mxGraphModel>
  </diagram>
</mxfile>
